<?xml version="1.0" encoding="UTF-8"?>
<svg width="1705.4" height="1571.4" version="1.1" viewBox="0 0 574.33 529.19" xmlns="http://www.w3.org/2000/svg">
 <path d="m150.37 327.65-33.86 10.28a0.63 0.63 0 0 1-0.7-1l8.53-12.73h-60.35a0.79 0.79 0 0 1-0.5-1.41l3-2.46 9.94-7.89c15.51-12.45 38.26-30.66 42.13-33.38s8.67-2.85 11.79-2.64c-1 2-1.81 5.7-1 12.19l-26.09 17.67a1.22 1.22 0 0 0 0.46 2.21l25.29 4.78-3.33 4.43a0.65 0.65 0 0 0 0.43 1l16.24 2.18a31.18 31.18 0 0 0 8.02 6.77z" fill="#dcf8ff"/>
 <path d="m142.33 320.92-16.24-2.18a0.65 0.65 0 0 1-0.43-1l3.33-4.43-25.29-4.78a1.22 1.22 0 0 1-0.46-2.21l26.09-17.67a78.84 78.84 0 0 0 2.44 11.59c2.74 9.75 6.75 16.32 10.56 20.68z" fill="#6ac7ef"/>
 <path d="m362.1 171.03 6.6 8.91-3.8 2.86-3.54-1.12-2 1.79q2.91 3.12 5.57 6.46c3.75-0.31 8.11-0.54 12.79-0.71a127.26 127.26 0 0 0-15.62-18.19zm0 0a123.69 123.69 0 0 0-86.19-35c-49.16 0-91.7 28.82-112.18 70.74a16.53 16.53 0 0 1 3.93 0.41l6.93 1.65c19.23-36.9 57.39-62 101.32-62a113.16 113.16 0 0 1 79.68 32.8l2.29-1.53-0.62-2.87zm-200.75 95.06-10.33-11.63q-0.3 4.39-0.3 8.87 0 6.62 0.65 13.05c0.65 0.33 1.24 0.67 1.77 1a10.5 10.5 0 0 1 4.76-4.19 15.52 15.52 0 0 0 1.59-0.77l2.09-1.15c-0.15-1.72-0.15-3.44-0.23-5.18zm15.92 73.48v-9.26c0-1.41 0-2.82-0.13-4.22s-0.12-2.63-0.09-3.81q-1.38-2.34-2.61-4.76c-2.49-0.77-4.76-1.48-6.84-2.35a9.62 9.62 0 0 1-2.39 7.63 127 127 0 0 0 12.39 19.32 5 5 0 0 0-0.33-2.55zm213.23-43.58c-1.29 0.34-2.94 0.74-4.92 1.21-14.27 47.83-57.98 82.63-109.68 82.63a112.9 112.9 0 0 1-71.88-25.78 24 24 0 0 1-3 1.15l-9.19 2.37a123.52 123.52 0 0 0 84.1 33c58.65 0 107.88-41 121.46-96.37-2.1 0.56-4.37 1.13-6.89 1.79zm0 0c-1.29 0.34-2.94 0.74-4.92 1.21-14.27 47.83-57.98 82.63-109.68 82.63a112.9 112.9 0 0 1-71.88-25.78 24 24 0 0 1-3 1.15l-9.19 2.37a123.52 123.52 0 0 0 84.1 33c58.65 0 107.88-41 121.46-96.37-2.1 0.56-4.37 1.13-6.89 1.79z" fill="#590000"/>
 <path d="m296.03 325.66s0.32 2.45-6.62 4.07c-5.25 1.22-56 14.83-80.33 21.38a18.67 18.67 0 0 0 4.17-4.28c0.85-1.24 2.76-3.65 5.27-6.72l24.58-8.77 1.45-1.13-1.12-5.58c1-0.13 2-0.28 3-0.44 12.52-2.05 32.73-5.73 54.21-9.82z" fill="#486654"/>
 <path d="m486.66 227.83-10.46 3.07a207.46 207.46 0 0 1 2.66 33.2c0 113.32-91.36 205.19-204.07 205.19-91.89 0-169.6-61.07-195.17-145h-12c25.81 90.1 108.66 156.07 206.91 156.07 118.9 0 215.25-96.53 215.25-215.72a217.89 217.89 0 0 0-3.12-36.81zm-415.95 36.26a209.08 209.08 0 0 1 1.38-24l-11.31-1a217.79 217.79 0 0 0 5.76 81.28l9.89-7.93a206.56 206.56 0 0 1-5.72-48.35zm407.79-68.53c-4.45-1.31-7.38-2.19-7.38-2.19s-1.93-0.36-5-0.88l-0.72-1.94c-29.41-77-103.64-131.65-190.58-131.65-101.8 0-186.18 74.93-201.59 172.87l-12 3.58c14.28-105.28 104.34-186.42 213.3-186.42 93.37 0 172.9 59.58 202.66 142.9 0.45 1.22 0.89 2.47 1.31 3.73z" fill="#2f3a34"/>
 <path d="m151.37 276.38a29.33 29.33 0 0 0-18.63-2.48 4.47 4.47 0 0 0-2.41 2.52c-3.12-0.21-8 0-11.79 2.64s-26.62 20.93-42.11 33.38a206.56 206.56 0 0 1-5.7-48.35 209.08 209.08 0 0 1 1.38-24l71.77 6.32 7.16 8.06q-0.3 4.39-0.3 8.87-0.02 6.61 0.63 13.04zm327.49-12.29c0 113.32-91.36 205.19-204.07 205.19-91.89 0-169.6-61.07-195.17-145h44.72l-8.53 12.73a0.63 0.63 0 0 0 0.7 1l33.86-10.28a15 15 0 0 0 2.7 1.27s8-1.36 12.12-6.13a127 127 0 0 0 12.39 19.32c-0.2 1.48-1.16 3.33-4.18 4.72-5.39 2.47-45.34 24.53-53.08 28.82h-0.08a0.1727 0.1727 0 0 0 0.13 0.32l71.45-18.43a123.52 123.52 0 0 0 84.1 33c58.65 0 107.88-41 121.46-96.37 2.75-0.69 5.15-1.3 7.28-1.93 7.84-2.28 12.24-4.86 18.47-13.12q1.43-1.89 2.81-3.77c1.22-1.66 2.4-3.3 3.52-4.87 0.76-1.07 1.5-2.12 2.2-3.13 1.22-1.73 2.33-3.34 3.33-4.8l0.95-1.4a1 1 0 0 0 0.08-0.14c0.23-0.33 0.45-0.64 0.65-0.95l0.48-0.72c0.61-0.91 1.13-1.69 1.54-2.33l0.37-0.55 0.84-1.3 0.05-0.08 0.11-0.22c0.14-0.26 0.38-0.72 0.72-1.31q0.33-0.58 0.78-1.32c0.09-0.16 0.2-0.33 0.31-0.51 0.12-0.18 0.23-0.37 0.36-0.56l0.34-0.53c0.14-0.22 0.29-0.44 0.46-0.67s0.28-0.42 0.44-0.63 0.46-0.65 0.71-1 0.5-0.66 0.76-1l0.63-0.77c0.19-0.24 0.39-0.47 0.59-0.7s0.41-0.47 0.62-0.7c0.35-0.39 0.71-0.78 1.09-1.15l0.65-0.64c0.22-0.22 0.45-0.43 0.68-0.63s0.51-0.45 0.77-0.67l0.64-0.52c0.24-0.19 0.49-0.38 0.73-0.55 0.48-0.35 1-0.68 1.48-1 0.21-0.12 0.42-0.25 0.63-0.36l0.3-0.16q0.31-0.18 0.63-0.33h0.09c0.27-0.14 0.54-0.25 0.82-0.37 9.2-3.8 15.8-6.4 15.8-6.4l5.08-1.49a207.46 207.46 0 0 1 2.69 33.12zm-13.49-73.54c-29.41-77-103.64-131.65-190.58-131.65-101.77 0-186.15 74.93-201.56 172.87 27.82-8.3 73.23-21.81 79.81-23.53a40.17 40.17 0 0 1 10.68-1.41c20.48-41.92 63-70.74 112.18-70.74a123.69 123.69 0 0 1 86.19 35 127.26 127.26 0 0 1 15.59 18.19c19.79-0.73 45.43-0.39 56-0.25a179 179 0 0 1 19.16 1.57c5.15 0.66 9.87 1.4 13.22 2zm-312.37 11.1-49.46-19.82 5.5-13.35a18.6 18.6 0 0 1 17.46-11.7 15.09 15.09 0 0 1 10.2 4.1 16.76 16.76 0 0 1 4.45 16.76l-1.54 5.52 17.82 7.16zm20.27-36.23-34.18-41 9.52-7.73 26.72 32.8 11.33-9.1 6.7 7.56zm64.06-34.87-5.67-8.41-11.51 3.95 1.55 10.82-11 3.43-7.39-54.61 15.12-4.81 30.57 45.17zm66.1-4.81h-13l-12.4-32.11v32.11h-11.16v-54.91h13.22l13 33.49-0.46-33.49h10.8zm50.45-29-4.93 9.1 11.48 5.82-4.89 8.93-11.26-5.67-5.49 10.82 13.64 7.09-4.63 8.58-23.74-12.58 24.73-46.89 22.64 11.89-5.5 8.93zm60.16 46.2-7.73-6.87-29.71 31.26-8.93-8.25 31.08-31.43-7.32-6.37 7.21-7.73 22.33 22.5z" fill="#faffcc"/>
 <path d="m165.19 322.83c-4.16 4.77-12.12 6.13-12.12 6.13a15 15 0 0 1-2.7-1.27 31.18 31.18 0 0 1-8-6.73c-3.81-4.36-7.82-10.93-10.56-20.72a78.84 78.84 0 0 1-2.44-11.59c-0.81-6.49 0-10.15 1-12.19a4.47 4.47 0 0 1 2.41-2.52 29.33 29.33 0 0 1 18.63 2.48c0.65 0.33 1.24 0.67 1.77 1a12.56 12.56 0 0 0-1.32 2.9c-1 3.13-1.2 7.54 0.45 13.71 0.06 0.22 0.12 0.43 0.17 0.64s0.13 0.48 0.2 0.71l0.36 1.23c0.13 0.41 0.25 0.81 0.38 1.2s0.25 0.78 0.39 1.15 0.26 0.74 0.39 1.09 0.26 0.71 0.4 1.05 0.33 0.82 0.5 1.22 0.25 0.57 0.38 0.85 0.24 0.52 0.37 0.77 0.29 0.58 0.43 0.86l0.45 0.82 0.45 0.77a23.09 23.09 0 0 0 1.9 2.71 20.72 20.72 0 0 0 8.54 6.1 9.62 9.62 0 0 1-2.43 7.63z" fill="#e0e2b3"/>
 <path d="m482.08 196.62c-1 0-2.07 0-3.2 0.08a101.6 101.6 0 0 0-10.95 1 58.67 58.67 0 0 0-9.75 2.23c-13.1 4.37-23 8.78-25.9 9.06s-17.5 1.35-11.38-6.19c4.12-5.07 14.28-11.1 32-12.24 5.15 0.66 9.87 1.4 13.22 2 3.1 0.52 5 0.88 5 0.88s2.93 0.88 7.38 2.19z" fill="#6ac7ef"/>
 <path d="m242.84 225.12-68.26-16.29-6.93-1.65a16.53 16.53 0 0 0-3.93-0.41 40.17 40.17 0 0 0-10.68 1.45c-6.58 1.72-52 15.23-79.81 23.53l-12 3.58-8.41 2.5a0.27 0.27 0 0 0 0.06 0.52l7.9 0.7 11.31 1 71.77 6.32 7.16 8.06 10.33 11.63 1.41 1.59 1.75 2 80.07-44.12zm-71.64 33a1.69 1.69 0 1 1 1.69 1.69 1.68 1.68 0 0 1-1.69-1.65zm53.32-29.57a1.69 1.69 0 1 1-1.69 1.69 1.69 1.69 0 0 1 1.69-1.65zm-26.72 13.36a1.69 1.69 0 1 1-1.69 1.69 1.69 1.69 0 0 1 1.69-1.65zm-43.15-8.82c0-9.5 8.06-17.19 18-17.19s18 7.69 18 17.19-8.06 17.18-18 17.18-18-7.65-18-17.14z" fill="#619377"/>
 <path d="m368.7 179.94-3.8 2.86-3.54-1.12-2 1.79-3.07 2.71-2.37 1.85 0.24 3.36c-2.21 0.44-4.88 1-7.9 1.7-1.57-3.8-3.05-7.31-3.86-9.2l5.92-3.95 3.24 2.37 4-2.7 2.29-1.53-0.62-2.87 4.84-4.19z" fill="#486654"/>
 <path d="m346.23 193.09c-2.8 0.64-5.9 1.36-9.19 2.15-10.34 2.48-22.6 5.58-33.6 8.41 2.44-5.37 7.61-16.24 9.39-16.24 0 0 0.08-0.33 0.23-0.9l24.89-4.68 2.73 0.62 0.63 1.13 0.42 0.74 0.62-0.41c0.83 1.92 2.31 5.38 3.88 9.18z" fill="#619377"/>
 <path d="m337.95 181.83-24.89 4.73c1.37-5.07 9.03-28.53 24.89-4.73z" fill="#6ac7ef"/>
 <path d="m233.35 290.4c-27.69-1.33-50.33 13.59-54.18 18.26-2.17 2.63-3.62 6.79-2.89 9.42l1.08 0.31c1.2-8.38 5.4-11 5.4-11 20.67-15.56 49.37-16.23 59.86-14.13 10.12 2 5.51 11.72 5.18 12.39 4.41-5.37 8.98-14.12-14.45-15.25z" fill="#a4d8bd"/>
 <path d="m437.13 259.41-0.48 0.72c-0.2 0.31-0.42 0.62-0.65 0.95a1 1 0 0 1-0.08 0.14l-0.95 1.4c-1 1.46-2.11 3.07-3.33 4.8-0.7 1-1.44 2.06-2.2 3.13-1.12 1.57-2.3 3.21-3.52 4.87q-1.38 1.88-2.81 3.77c-6.23 8.26-10.63 10.84-18.47 13.12l19.3-33.69a3.94 3.94 0 0 1 4.92-1.69l6.58 2.71 0.36 0.15a1.07 1.07 0 0 0 1.33-0.38z" fill="#619377"/>
 <path d="m420.43 250.43c-2.32 4-5.44 6.57-7 5.69s-0.87-4.86 1.45-8.88 5.45-6.58 7-5.7 0.88 4.86-1.45 8.89z" fill="#58a5bf"/>
 <path d="m391.95 215.53a13.13 13.13 0 0 1-10 3.64 7.53 7.53 0 0 1-0.83-0.1c-4.11-0.74-5.35-3.83-5.35-10.15a8.8 8.8 0 0 1 0.28-2.21c1-3.91 4.66-6.59 7.95-7.57a9.08 9.08 0 0 1 2.61-0.42c4.18 0 5.85 2.84 7.58 8.92a7.78 7.78 0 0 1-2.24 7.89zm-50.41 6.08c-0.87 4.68-1.56 6.78-8 8.26a9.08 9.08 0 0 1-10.74-10c0.48-5 5-10.27 9.43-9.69 6.38 0.83 10.53 4.88 9.31 11.43zm-50.65 11.54c0.35 6.17-6.86 11.3-12 10.38-4.43-0.79-7.49-4.06-7.49-9.29s7-11.84 11.52-11.48c4.73 0.39 7.7 5.66 7.97 10.39z" fill="#6ac7ef"/>
 <path d="m227.54 114.07-8.93 3.43-3.95-23.87zm-97.04 65.12-13.56-4.84c1.2-3.44 3.85-10.14 10.82-7 6.18 2.7 2.74 11.84 2.74 11.84z" fill="#faffcc"/>
 <g transform="translate(-10.566 -156.17)" fill="#2b2b2b">
  <path d="m229 237.09-15.11 4.81 7.39 54.61 11-3.43-1.55-10.82 11.51-3.95 5.67 8.41 11.67-4.46zm0.18 36.58-4-23.87 12.88 20.44zm84.83-46.71v54.95h-13.05l-12.36-32.11v32.11h-11.16v-54.95h13.22l13.05 33.49-0.51-33.49zm50.45 25.93-4.93 9.1 11.51 5.84-4.89 8.93-11.26-5.67-5.49 10.82 13.56 7.05-4.63 8.58-23.7-12.53 24.73-46.89 22.67 11.85-5.5 8.93zm11.48 274.25-20.49 15.31 31.57 42.58 21.56-15.95-5.74-7.89-12.22 9.18-7.37-9.63 9.98-7.7-5.94-8.27-10.25 7.85-6.07-8.38 10.64-8.29zm-164.11 11.33-20.5-15.29-31.85 42.37 21.42 16.14 5.94-7.75-12.29-9.1 7.14-9.81 10.22 7.38 6.24-8.05-10.43-7.59 6.31-8.2 10.96 7.85zm219.66-246.25-6.87 6.87-7.73-6.87-29.71 31.26-8.93-8.25 31.08-31.43-7.38-6.35 7.21-7.73zm-281.31 47.06 1.54-5.52a16.76 16.76 0 0 0-4.45-16.76 15.09 15.09 0 0 0-10.2-4.1 18.6 18.6 0 0 0-17.46 11.7l-5.5 13.4 49.46 19.87 4.43-11.38zm-9.11-3.92-13.56-4.84c1.2-3.44 3.85-10.14 10.82-7 6.18 2.7 2.74 11.84 2.74 11.84zm156.86 236.3a18.59 18.59 0 0 0-17.16-12.12l-14.44-0.37-0.87 53.3 12.18 0.12 0.35-19.26 5.7-0.53a16.76 16.76 0 0 0 14.06-10.14 15.06 15.06 0 0 0 0.18-11zm-19.54 11.77-0.33-14.4c3.64-0.11 10.85 0 10.45 7.58-0.36 6.76-10.12 6.82-10.12 6.82zm-74.46-279.36-20.09 17.52-34.18-41.05 9.52-7.73 26.72 32.8 11.33-9.1zm17.38 239.05v28.38l-22.33 20.25 11.17 5.68 13.24-14v20.43l11.74 4.36v-31.04l19.99-18.01-9.96-5.27-12.68 12.3-0.57-17.79zm114.87 42.76c4.39 4.19 12.49 16.09 12.49 16.09l11.55-4-16.85-19.68s8.71-9.46-1.51-22.24a13.4 13.4 0 0 0-13.81-3.65c-8.52 2.61-18.93 6.74-18.93 6.74l18 50.75 10.41-3.79-5.64-18.1a2.88 2.88 0 0 1 0.41-2.64c0.7-0.86 1.7-1.52 3.88 0.52zm-8-8.21-4.91-12.09c8.9-6 12 1.59 12 1.59 3.26 8.51-7.11 10.5-7.11 10.5zm77.82-82.98 3.6 10s-9.84 3.78-5.87 10.79c2.65 4.66 7.57 2.44 10.56 0.43a20.35 20.35 0 0 1 10.32-3.59c4.47-0.22 9.93 0.82 13.75 5.92a17.44 17.44 0 0 1 0 21.65 32.71 32.71 0 0 1-12.3 6.88l-4.73-9.15s13-5.09 9.6-10.49-9.22-3.14-12.81-1.25-11.22 8.33-22-0.94-1.12-28.33 9.88-30.25zm21.33-37.1 5.09 9.33s-9.14 5.26-4.13 11.57c3.34 4.2 7.85 1.24 10.5-1.2a20.32 20.32 0 0 1 9.64-5.14c4.38-0.91 9.94-0.72 14.5 3.73a17.44 17.44 0 0 1 3.34 21.39 32.76 32.76 0 0 1-11.1 8.7l-6.08-8.32s12-7 7.87-11.84-9.6-1.68-12.86 0.74-9.79 10-21.85 2.46-5.47-27.83 5.08-31.42z"/>
 </g>
 <path d="m172.65 215.94c-9.94 0-18 7.69-18 17.19s8.06 17.18 18 17.18 18-7.69 18-17.18-8.06-17.19-18-17.19zm0.33 27.7a11 11 0 1 1 11-11 11 11 0 0 1-11 11z" fill="#faffcc"/>
 <circle cx="172.98" cy="232.64" r="11" fill="#e23d3d"/>
 <g fill="#a4d8bd">
  <circle cx="172.89" cy="258.16" r="1.69"/>
  <circle cx="197.8" cy="243.64" r="1.69"/>
  <circle cx="224.52" cy="230.28" r="1.69"/>
 </g>
 <path d="m242.62 293.26c-10.49-2.1-39.21-1.42-59.86 14.14 0 0-4.2 2.61-5.4 11-0.1 0.66-0.18 1.36-0.23 2.1 0 0.57-0.07 1.17-0.08 1.79 0 1.18 0 2.45 0.09 3.81s0.13 2.81 0.13 4.22v9.26a5 5 0 0 1 0.31 2.54c-0.2 1.48-1.16 3.33-4.18 4.72-5.39 2.47-45.34 24.53-53.08 28.82h-0.1a0.1727 0.1727 0 0 0 0.13 0.32l71.45-18.43 9.19-2.37a24 24 0 0 0 3-1.15 26.76 26.76 0 0 0 5.06-3 18.67 18.67 0 0 0 4.17-4.28c0.85-1.24 2.76-3.65 5.27-6.72 3.35-4.09 7.77-9.34 12.16-14.5 5.86-6.89 11.66-13.62 14.76-17.22l0.11-0.12c0.26-0.3 0.55-0.63 0.84-1l0.68-0.77 0.33-0.39 0.28-0.33 0.1-0.11c0.38-0.61 4.99-10.3-5.13-12.33zm-57.76 21.11a1.93 1.93 0 1 1 1.93-1.93 1.92 1.92 0 0 1-1.93 1.93zm25.48-11.28a1.93 1.93 0 1 1 1.93-1.93 1.94 1.94 0 0 1-1.93 1.93zm27.94-1.93a1.93 1.93 0 1 1 1.93-1.93 1.93 1.93 0 0 1-1.93 1.93z" fill="#619377"/>
 <path d="m186.79 312.44a1.93 1.93 0 1 1-1.93-1.93 1.93 1.93 0 0 1 1.93 1.93zm25.48-11.28a1.93 1.93 0 1 1-1.93-1.93 1.93 1.93 0 0 1 1.93 1.93zm27.94-1.93a1.93 1.93 0 1 1-1.93-1.93 1.93 1.93 0 0 1 1.93 1.93z" fill="#a4d8bd"/>
 <path d="m247.8 305.65c0.33-0.67 4.94-10.36-5.18-12.39-10.49-2.1-39.21-1.42-59.86 14.14 0 0-4.2 2.61-5.4 11l-1.08-0.31c-0.73-2.63 0.72-6.79 2.89-9.42 3.85-4.67 26.49-19.59 54.18-18.26 23.43 1.12 18.86 9.87 14.45 15.24z" fill="#e0e2b3"/>
 <path d="m520.04 210.92v-0.28a2.93 2.93 0 0 0-0.07-0.41c0-0.15-0.09-0.31-0.14-0.47l-0.15-0.34a3.11 3.11 0 0 0-0.22-0.4c0-0.09-0.12-0.19-0.18-0.28s-0.26-0.33-0.4-0.49l-0.29-0.29a8 8 0 0 0-1-0.79l-0.44-0.27-0.35-0.19-0.4-0.2-0.54-0.24-0.26-0.11c-0.21-0.09-0.43-0.17-0.66-0.25-0.54-0.19-1.12-0.37-1.76-0.54-8.63-2.25-21.74-6-31-8.75-1 0-2.07 0-3.2 0.08a101.6 101.6 0 0 0-10.95 1 58.67 58.67 0 0 0-9.75 2.23c-13.1 4.37-23 8.78-25.9 9.06s-17.5 1.35-11.38-6.19c4.12-5.07 14.28-11.1 32-12.24a179 179 0 0 0-19.16-1.57c-10.59-0.14-36.23-0.48-56 0.25-4.68 0.17-9 0.4-12.79 0.71-2.86 0.23-5.37 0.51-7.4 0.84-0.95 0.15-2.08 0.36-3.37 0.62-2.21 0.44-4.88 1-7.9 1.7-2.8 0.64-5.9 1.36-9.19 2.15-10.34 2.48-22.6 5.58-33.6 8.41-16.6 4.27-30.35 7.93-30.35 7.93a108.88 108.88 0 0 0-14.41 6.2l-13.41 7.38-0.69 0.38-80.07 44.12-2 1.11-0.92 0.5-2.09 1.15a15.52 15.52 0 0 1-1.59 0.77 10.5 10.5 0 0 0-4.76 4.19 12.56 12.56 0 0 0-1.32 2.9c-1 3-1.18 7.23 0.29 13.07 0 0.21 0.1 0.42 0.16 0.64s0.12 0.43 0.17 0.64 0.13 0.48 0.2 0.71l0.36 1.23c0.13 0.41 0.25 0.81 0.38 1.2s0.25 0.78 0.39 1.15 0.26 0.74 0.39 1.09 0.26 0.71 0.4 1.05 0.33 0.82 0.5 1.22 0.25 0.57 0.38 0.85 0.24 0.52 0.37 0.77 0.29 0.58 0.43 0.86l0.45 0.82 0.45 0.77a23.09 23.09 0 0 0 1.9 2.71 20.72 20.72 0 0 0 8.54 6.1c2.08 0.87 4.35 1.58 6.84 2.35l1.84 0.56c-0.73-2.63 0.72-6.79 2.89-9.42 3.85-4.67 26.49-19.59 54.18-18.26 23.43 1.13 18.86 9.88 14.45 15.25l-0.1 0.11-0.28 0.33-0.33 0.39-0.68 0.77c-0.29 0.35-0.58 0.68-0.84 1l-0.11 0.12c-3.1 3.6-8.9 10.33-14.76 17.22a117.14 117.14 0 0 0 12.78-1c1-0.13 2-0.28 3-0.44 12.52-2.05 32.73-5.73 54.21-9.82 33.07-6.28 69.16-13.51 84.89-17.17 2-0.47 3.63-0.87 4.92-1.21 2.52-0.66 4.79-1.23 6.86-1.75 2.75-0.69 5.15-1.3 7.28-1.93l19.3-33.69a3.94 3.94 0 0 1 4.92-1.69l6.58 2.71 0.36 0.15a1.07 1.07 0 0 0 1.29-0.39c0.61-0.91 1.13-1.69 1.54-2.33l0.37-0.55 0.84-1.3 0.05-0.08 0.11-0.22c0.14-0.26 0.38-0.72 0.72-1.31q0.33-0.58 0.78-1.32c0.09-0.16 0.2-0.33 0.31-0.51s0.22-0.37 0.36-0.56l0.34-0.53c0.14-0.22 0.29-0.44 0.46-0.67s0.28-0.42 0.44-0.63 0.46-0.65 0.71-1 0.5-0.66 0.76-1l0.63-0.77c0.19-0.24 0.39-0.47 0.59-0.7s0.41-0.47 0.62-0.7c0.35-0.39 0.71-0.78 1.09-1.15 0.21-0.22 0.43-0.44 0.65-0.64s0.45-0.43 0.68-0.63 0.51-0.45 0.77-0.67l0.64-0.52c0.24-0.19 0.49-0.38 0.73-0.55 0.48-0.35 1-0.68 1.48-1 0.21-0.12 0.42-0.25 0.63-0.36l0.3-0.16q0.31-0.18 0.63-0.33h0.09c0.27-0.14 0.54-0.25 0.82-0.37 9.2-3.8 15.8-6.4 15.8-6.4l5.08-1.49 10.41-3.09 24.63-7.23a13 13 0 0 0 7.78-6 8.57 8.57 0 0 0 0.71-1.62 2.17 2.17 0 0 0 0.07-0.24 1.05 1.05 0 0 0 0.05-0.19c0-0.14 0.06-0.28 0.09-0.42a5.13 5.13 0 0 0 0.06-1s-0.01-0.17-0.01-0.21zm-144-4.21c1-3.91 4.66-6.59 7.95-7.57a9.08 9.08 0 0 1 2.61-0.42c4.18 0 5.85 2.84 7.58 8.92a7.78 7.78 0 0 1-2.26 7.89 13.13 13.13 0 0 1-10 3.64 7.53 7.53 0 0 1-0.83-0.1c-4.11-0.74-5.35-3.83-5.35-10.15a8.8 8.8 0 0 1 0.33-2.21zm-53.26 13.12c0.48-5 5-10.27 9.43-9.69 6.4 0.85 10.55 4.9 9.33 11.45-0.87 4.68-1.56 6.78-8 8.26a9.08 9.08 0 0 1-10.76-10.02zm-39.85 2.91c4.72 0.39 7.69 5.66 8 10.39 0.35 6.17-6.86 11.3-12 10.38-4.43-0.79-7.49-4.06-7.49-9.29s6.99-11.82 11.49-11.46zm137.5 27.69c-2.32 4-5.44 6.57-7 5.69s-0.87-4.86 1.45-8.88 5.45-6.58 7-5.7 0.88 4.86-1.45 8.89z" fill="#abdbc0"/>
 <path d="m164.51 269.66-2 1.11-0.92 0.5c-0.12-1.72-0.2-3.44-0.23-5.18l1.41 1.59zm12.85 48.73c-0.1 0.66-0.18 1.36-0.23 2.1 0 0.57-0.07 1.17-0.08 1.79q-1.38-2.34-2.61-4.76l1.84 0.56zm187.54-128.46c-2.86 0.23-5.37 0.51-7.4 0.84-0.95 0.15-2.08 0.36-3.37 0.62l-0.24-3.36 2.37-1.85 3.07-2.71q2.91 3.12 5.57 6.46zm-120.35 140.28-1.45 1.13-24.58 8.77c3.35-4.09 7.77-9.34 12.16-14.5a117.14 117.14 0 0 0 12.78-1zm141.03-33.01c-14.27 47.83-57.98 82.63-109.68 82.63a112.9 112.9 0 0 1-71.88-25.78 26.76 26.76 0 0 0 5.06-3c24.35-6.49 75.08-20.1 80.35-21.32 6.94-1.62 6.62-4.07 6.62-4.07l4.66-11.29c33.05-6.28 69.14-13.54 84.87-17.17zm-30-117.59-4 2.7-3.24-2.37-5.92 3.95-0.62 0.41-0.42-0.74-0.63-1.13-2.73-0.62c-15.86-23.75-23.49-0.29-24.89 4.73-0.15 0.57-0.23 0.9-0.23 0.9-1.78 0-6.95 10.87-9.39 16.24-16.6 4.27-30.35 7.93-30.35 7.93a108.88 108.88 0 0 0-14.41 6.2l-13.41 7.38-0.69 0.38-1.74-0.42-68.33-16.32c19.23-36.9 57.39-62 101.32-62a113.16 113.16 0 0 1 79.68 32.78z" fill="#e23d3d"/>
 <path d="m148.91 294.24 156.79-43.41q7.39-2.06 14.92-3.54c24.41-4.84 100.27-19.8 114.6-21.79 17.12-2.38 89.31-15.42 89.31-15.42" fill="none" stroke="#c63c3c" stroke-miterlimit="10" stroke-width="4"/>
 <path d="m525.43 182.66c-0.68-0.29-1.35-0.57-2-0.84a163.49 163.49 0 0 0-27-8c-35.4-88-121.27-150-221.58-150-115.32 0-211.57 82-234 191.19-5.82 2.94-16.7 10.39-16.1 24.83 0.38 9.15 5.66 16.24 11.2 21.21v2.63a241.78 241.78 0 0 0 4.39 46c-2.11 5.29-5.44 16-2.47 24 2.19 5.89 8 10.55 13.26 14.29 34 90.88 121.33 155.55 223.71 155.55 131.94 0 238.9-107.39 238.9-239.86q0-7.25-0.42-14.37a73.91 73.91 0 0 0 21.73-12.76c6.18-5.36 11.24-12 13.48-19.86a32.34 32.34 0 0 0 1.24-9.74c-0.24-10.93-11.72-18.85-24.34-24.27zm-5.42 28.39a5.13 5.13 0 0 1-0.06 1c0 0.14 0 0.28-0.09 0.42a1.05 1.05 0 0 1-0.05 0.19 2.17 2.17 0 0 1-0.07 0.24 8.57 8.57 0 0 1-0.71 1.62 13 13 0 0 1-7.78 6l-24.59 7.31a217.89 217.89 0 0 1 3.12 36.82c0 119.18-96.35 215.71-215.25 215.71-98.25 0-181.13-66-206.92-156.12h-3.62a0.79 0.79 0 0 1-0.5-1.41l3-2.46a217.79 217.79 0 0 1-5.76-81.28l-7.9-0.7a0.27 0.27 0 0 1-0.06-0.52l8.43-2.52c14.31-105.28 104.37-186.42 213.33-186.42 93.37 0 172.9 59.58 202.66 142.9 0.45 1.25 0.89 2.5 1.31 3.76l3.58 1.06c9.28 2.72 22.39 6.5 31 8.75 0.64 0.17 1.22 0.35 1.76 0.54 0.23 0.08 0.45 0.16 0.66 0.25l0.26 0.11 0.54 0.24 0.4 0.2 0.35 0.19 0.44 0.27a8 8 0 0 1 1 0.79l0.29 0.29c0.14 0.16 0.28 0.33 0.4 0.49s0.13 0.19 0.18 0.28a3.11 3.11 0 0 1 0.22 0.4l0.15 0.34c0 0.16 0.1 0.32 0.14 0.47a2 2 0 0 1 0.07 0.41v0.39z" fill="#a5d8a3"/>
 <path d="m572 194.48c-4.18-23.07-43.32-36.87-59.5-40.69-41.54-90.81-132.59-153.82-238.23-153.82-122.75 0-225.81 85.07-254.38 200a44.47 44.47 0 0 0-19.83 35.41c-0.8 15.6 6.11 27.68 12 35.05a266.57 266.57 0 0 0 3.23 36.22c-2.34 6.37-5.3 19.2-0.18 35.81 2.56 8.33 8.45 14.55 15.06 19.11 38.34 98.16 133.17 167.62 244.09 167.62 144.84 0 262.26-118.47 262.26-264.6v-0.65c40.26-24.6 40.71-40.59 35.48-69.46zm-23.45 22.12c-2.24 7.86-7.3 14.5-13.48 19.86a73.91 73.91 0 0 1-21.73 12.76q0.42 7.13 0.42 14.37c0 132.47-107 239.86-238.9 239.86-102.38 0-189.72-64.62-223.71-155.55-5.22-3.74-11.07-8.4-13.26-14.29-3-8 0.36-18.74 2.47-24a241.78 241.78 0 0 1-4.39-46v-2.63c-5.54-5-10.82-12.06-11.2-21.21-0.6-14.44 10.28-21.89 16.1-24.83 22.42-109.11 118.67-191.21 233.99-191.21 100.31 0 186.18 62.1 221.57 150.1a163.49 163.49 0 0 1 27 8c0.68 0.27 1.35 0.55 2 0.84 12.58 5.42 24.06 13.34 24.32 24.2a32.34 32.34 0 0 1-1.2 9.73z" fill="#fff"/>
</svg>
